2.2Hzhigh3min_grf.mot
version=1
nRows=20
nColumns 19
inDegrees=yes
endheader
time	1_ground_force_vx	1_ground_force_vy	1_ground_force_vz	1_ground_force_px	1_ground_force_py	1_ground_force_pz	1_ground_torque_x	1_ground_torque_y	1_ground_torque_z	2_ground_force_vx	2_ground_force_vy	2_ground_force_vz	2_ground_force_px	2_ground_force_py	2_ground_force_pz	2_ground_torque_x	2_ground_torque_y	2_ground_torque_z
            2.502500	            0.046868	           -0.001761	            0.412589	           -0.233013	            0.005581	           -0.255695	            0.151174	           -0.027343	           -0.073730	           -0.136021	           -1.288542	           -0.286108	           -0.232311	            0.006130	           -0.833667	           -0.169075	           -0.009727	           -0.094213
            2.503000	            0.137676	           -0.180436	            0.044742	           -0.233013	            0.005581	           -0.255695	            0.147985	           -0.036235	           -0.145037	            0.376005	           -0.365939	           -0.283042	           -0.232311	            0.006130	           -0.833667	           -0.169385	            0.093715	            0.056960
            2.503500	            0.228451	           -0.178845	           -0.322333	           -0.233013	            0.005581	           -0.255695	            0.201141	           -0.073089	           -0.160216	            0.235496	           -0.366781	           -0.189126	           -0.232311	            0.006130	           -0.833667	           -0.131677	            0.056040	            0.056809
            2.504000	            0.595632	            0.541305	           -0.090872	           -0.233013	            0.005581	           -0.255695	            0.115864	           -0.137632	           -0.144668	           -0.087862	           -1.656502	           -0.334370	           -0.232311	            0.006130	           -0.833667	           -0.112550	           -0.047603	           -0.018971
            2.504500	            0.366681	           -0.900864	           -0.096487	           -0.233013	            0.005581	           -0.255695	            0.135628	           -0.119409	           -0.116766	           -0.184721	           -0.737437	            0.044380	           -0.232311	            0.006130	           -0.833667	           -0.187726	           -0.029238	            0.056529
            2.505000	            0.184300	           -0.722404	            0.317444	           -0.233013	            0.005581	           -0.255695	            0.136659	           -0.073261	           -0.124396	           -0.183994	           -0.922088	            0.184507	           -0.232311	            0.006130	           -0.833667	           -0.131173	           -0.094867	           -0.037982
            2.505500	            0.275415	            0.540064	            0.185060	           -0.233013	            0.005581	           -0.255695	            0.085582	           -0.008852	           -0.044936	           -0.046165	           -0.184485	            0.046291	           -0.232311	            0.006130	           -0.833667	           -0.074972	           -0.038351	            0.075298
            2.506000	           -0.228304	           -0.001617	            0.367416	           -0.233013	            0.005581	           -0.255695	            0.134282	           -0.027394	           -0.104215	            0.090959	            0.737601	           -0.185124	           -0.232311	            0.006130	           -0.833667	           -0.112577	           -0.029034	            0.075348
            2.506500	            0.045843	            0.000009	           -0.000114	           -0.233013	            0.005581	           -0.255695	            0.131284	           -0.082902	           -0.055121	            0.099661	           -1.656829	           -0.052881	           -0.232311	            0.006130	           -0.833667	           -0.169206	            0.046384	            0.075641
            2.507000	            0.366810	           -0.360460	           -0.002456	           -0.233013	            0.005581	           -0.255695	            0.206403	           -0.073094	           -0.135560	            0.093576	            0.001343	           -0.281608	           -0.232311	            0.006130	           -0.833667	           -0.150308	           -0.000341	           -0.056487
            2.507500	            0.320661	           -1.801612	           -0.237806	           -0.233013	            0.005581	           -0.255695	            0.217338	           -0.092011	           -0.043581	            0.001206	           -0.367292	           -0.282883	           -0.232311	            0.006130	           -0.833667	           -0.093944	            0.008979	            0.037774
            2.508000	            0.641331	           -0.539690	           -0.233191	           -0.233013	            0.005581	           -0.255695	            0.141376	           -0.073230	           -0.067270	           -0.046870	           -0.000002	           -0.046908	           -0.232311	            0.006130	           -0.833667	           -0.168736	           -0.085886	            0.056319
            2.508500	            0.412847	           -0.180579	            0.089915	           -0.233013	            0.005581	           -0.255695	            0.164926	           -0.045509	           -0.095794	           -0.000665	            0.184148	            0.000657	           -0.232311	            0.006130	           -0.833667	           -0.168608	           -0.123630	            0.037334
            2.509000	            0.229898	           -0.001135	            0.274567	           -0.233013	            0.005581	           -0.255695	            0.157251	           -0.055315	            0.009146	            0.235558	           -0.367283	           -0.048342	           -0.232311	            0.006130	           -0.833667	           -0.093662	           -0.075893	           -0.019080
            2.509500	            0.000390	            0.359745	            0.184970	           -0.233013	            0.005581	           -0.255695	            0.048085	           -0.045879	           -0.075521	            0.045480	            0.368801	           -0.092562	           -0.232311	            0.006130	           -0.833667	           -0.244158	           -0.019653	           -0.037664
            2.510000	            0.138035	           -0.901892	            0.133362	           -0.233013	            0.005581	           -0.255695	            0.125816	           -0.054804	           -0.126238	            0.046000	            0.185824	           -0.421716	           -0.232311	            0.006130	           -0.833667	           -0.169214	            0.046451	            0.056791
            2.510500	            0.413207	           -0.902035	            0.178535	           -0.233013	            0.005581	           -0.255695	            0.161677	           -0.110532	           -0.020847	           -0.092453	           -0.367965	           -0.188987	           -0.232311	            0.006130	           -0.833667	           -0.131582	            0.018565	           -0.037577
            2.511000	            0.183030	            0.000625	           -0.138023	           -0.233013	            0.005581	           -0.255695	            0.137170	           -0.110573	           -0.049390	            0.186550	            0.186331	           -0.421776	           -0.232311	            0.006130	           -0.833667	           -0.187581	           -0.076300	           -0.000190
            2.511500	            0.595096	            0.362023	           -0.320925	           -0.233013	            0.005581	           -0.255695	            0.163575	           -0.110385	           -0.031875	           -0.046932	            0.000500	           -0.187692	           -0.232311	            0.006130	           -0.833667	           -0.187623	           -0.066780	           -0.019006
            2.512000	            0.458088	            0.000678	           -0.138706	           -0.233013	            0.005581	           -0.255695	            0.118132	           -0.026776	           -0.150044	            0.001994	           -0.552445	           -0.001971	           -0.232311	            0.006130	           -0.833667	           -0.055980	           -0.113367	           -0.075782
